<svg width="147" height="198" viewBox="0 0 147 198" fill="none" xmlns="http://www.w3.org/2000/svg">
<path d="M0 6C0 2.68629 2.68629 0 6 0H141C144.314 0 147 2.68629 147 6V182H0V6Z" fill="#D8D8D8"/>
<rect x="14" y="13" width="119" height="98" rx="2" fill="#C4C4C4"/>
<rect x="65" y="132" width="68" height="7" fill="#C4C4C4"/>
<rect x="47.7676" y="35.5803" width="12.9664" height="3.85487" transform="rotate(45 47.7676 35.5803)" fill="#394456"/>
<rect x="92.439" y="35.5803" width="12.9664" height="3.85487" transform="rotate(45 92.439 35.5803)" fill="#394456"/>
<rect x="56.9365" y="38.1205" width="12.9664" height="3.85487" transform="rotate(135 56.9365 38.1205)" fill="#394456"/>
<rect x="101.607" y="38.1205" width="12.9664" height="3.85487" transform="rotate(135 101.607 38.1205)" fill="#394456"/>
<rect x="75.3447" y="64.4814" width="8.76106" height="3.85487" transform="rotate(-180 75.3447 64.4814)" fill="#394456"/>
<rect x="75.3447" y="35.0443" width="29.4372" height="3.85487" transform="rotate(90 75.3447 35.0443)" fill="#394456"/>
<rect x="91.6401" y="86.9097" width="36.446" height="3.85487" transform="rotate(-180 91.6401 86.9097)" fill="#394456"/>
<rect x="100.226" y="90.7646" width="12.9664" height="3.85487" transform="rotate(-180 100.226 90.7646)" fill="#394456"/>
<rect x="59.2246" y="90.7646" width="12.9664" height="3.85487" transform="rotate(-180 59.2246 90.7646)" fill="#394456"/>
<rect x="46.2578" y="95.3204" width="8.41062" height="3.85487" transform="rotate(-90 46.2578 95.3204)" fill="#394456"/>
<rect x="96.3711" y="95.3204" width="8.41062" height="3.85487" transform="rotate(-90 96.3711 95.3204)" fill="#394456"/>
<rect x="10" y="182" width="127" height="16" fill="#CBCBCB"/>
<path d="M19.649 161.066C19.4363 161.066 19.264 161 19.132 160.868C19.0073 160.736 18.945 160.564 18.945 160.351V153.894C18.945 153.681 19.0073 153.513 19.132 153.388C19.264 153.256 19.4363 153.19 19.649 153.19C19.869 153.19 20.0413 153.256 20.166 153.388C20.298 153.513 20.364 153.681 20.364 153.894V160.351C20.364 160.564 20.298 160.736 20.166 160.868C20.0413 161 19.869 161.066 19.649 161.066ZM26.8111 161.088C26.2758 161.088 25.8028 160.974 25.3921 160.747C24.9888 160.52 24.6771 160.197 24.4571 159.779C24.2371 159.361 24.1271 158.873 24.1271 158.316C24.1271 157.759 24.2408 157.267 24.4681 156.842C24.7028 156.409 25.0291 156.076 25.4471 155.841C25.8651 155.606 26.3454 155.489 26.8881 155.489C27.1741 155.489 27.4601 155.529 27.7461 155.61C28.0394 155.691 28.2961 155.801 28.5161 155.94C28.7508 156.094 28.8681 156.288 28.8681 156.523C28.8681 156.684 28.8278 156.816 28.7471 156.919C28.6738 157.014 28.5748 157.062 28.4501 157.062C28.3694 157.062 28.2851 157.044 28.1971 157.007C28.1091 156.97 28.0211 156.926 27.9331 156.875C27.7718 156.78 27.6178 156.706 27.4711 156.655C27.3244 156.596 27.1558 156.567 26.9651 156.567C26.5104 156.567 26.1584 156.717 25.9091 157.018C25.6671 157.311 25.5461 157.737 25.5461 158.294C25.5461 158.844 25.6671 159.269 25.9091 159.57C26.1584 159.863 26.5104 160.01 26.9651 160.01C27.1484 160.01 27.3098 159.984 27.4491 159.933C27.5958 159.874 27.7571 159.797 27.9331 159.702C28.0431 159.636 28.1384 159.588 28.2191 159.559C28.2998 159.522 28.3804 159.504 28.4611 159.504C28.5784 159.504 28.6774 159.555 28.7581 159.658C28.8388 159.761 28.8791 159.889 28.8791 160.043C28.8791 160.168 28.8498 160.278 28.7911 160.373C28.7398 160.461 28.6518 160.542 28.5271 160.615C28.2998 160.762 28.0358 160.879 27.7351 160.967C27.4344 161.048 27.1264 161.088 26.8111 161.088ZM31.8872 155.489C32.6352 155.489 33.1888 155.676 33.5482 156.05C33.9148 156.417 34.0982 156.978 34.0982 157.733V160.417C34.0982 160.615 34.0395 160.773 33.9222 160.89C33.8048 161 33.6435 161.055 33.4382 161.055C33.2475 161.055 33.0898 160.996 32.9652 160.879C32.8478 160.762 32.7892 160.608 32.7892 160.417V160.175C32.6645 160.461 32.4665 160.685 32.1952 160.846C31.9312 161.007 31.6232 161.088 31.2712 161.088C30.9118 161.088 30.5855 161.015 30.2922 160.868C29.9988 160.721 29.7678 160.52 29.5992 160.263C29.4305 160.006 29.3462 159.72 29.3462 159.405C29.3462 159.009 29.4452 158.697 29.6432 158.47C29.8485 158.243 30.1785 158.078 30.6332 157.975C31.0878 157.872 31.7148 157.821 32.5142 157.821H32.7892V157.568C32.7892 157.209 32.7122 156.948 32.5582 156.787C32.4042 156.618 32.1548 156.534 31.8102 156.534C31.5975 156.534 31.3812 156.567 31.1612 156.633C30.9412 156.692 30.6808 156.78 30.3802 156.897C30.1895 156.992 30.0502 157.04 29.9622 157.04C29.8302 157.04 29.7202 156.992 29.6322 156.897C29.5515 156.802 29.5112 156.677 29.5112 156.523C29.5112 156.398 29.5405 156.292 29.5992 156.204C29.6652 156.109 29.7715 156.021 29.9182 155.94C30.1748 155.801 30.4792 155.691 30.8312 155.61C31.1905 155.529 31.5425 155.489 31.8872 155.489ZM31.5462 160.098C31.9128 160.098 32.2098 159.977 32.4372 159.735C32.6718 159.486 32.7892 159.167 32.7892 158.778V158.547H32.5912C32.0998 158.547 31.7185 158.569 31.4472 158.613C31.1758 158.657 30.9815 158.734 30.8642 158.844C30.7468 158.954 30.6882 159.104 30.6882 159.295C30.6882 159.53 30.7688 159.724 30.9302 159.878C31.0988 160.025 31.3042 160.098 31.5462 160.098ZM38.3796 155.489C39.0249 155.489 39.5053 155.672 39.8206 156.039C40.1359 156.406 40.2936 156.959 40.2936 157.7V160.406C40.2936 160.611 40.2313 160.773 40.1066 160.89C39.9893 161.007 39.8243 161.066 39.6116 161.066C39.3989 161.066 39.2303 161.007 39.1056 160.89C38.9809 160.773 38.9186 160.611 38.9186 160.406V157.777C38.9186 157.359 38.8379 157.055 38.6766 156.864C38.5226 156.673 38.2769 156.578 37.9396 156.578C37.5436 156.578 37.2246 156.703 36.9826 156.952C36.7479 157.201 36.6306 157.535 36.6306 157.953V160.406C36.6306 160.611 36.5683 160.773 36.4436 160.89C36.3189 161.007 36.1503 161.066 35.9376 161.066C35.7249 161.066 35.5563 161.007 35.4316 160.89C35.3143 160.773 35.2556 160.611 35.2556 160.406V156.149C35.2556 155.958 35.3179 155.804 35.4426 155.687C35.5673 155.57 35.7359 155.511 35.9486 155.511C36.1393 155.511 36.2933 155.57 36.4106 155.687C36.5353 155.797 36.5976 155.944 36.5976 156.127V156.424C36.7809 156.123 37.0266 155.892 37.3346 155.731C37.6426 155.57 37.9909 155.489 38.3796 155.489ZM41.8946 153.19C42.1439 153.19 42.3456 153.282 42.4996 153.465C42.6536 153.648 42.7306 153.916 42.7306 154.268C42.7306 154.957 42.4886 155.562 42.0046 156.083C41.9166 156.178 41.8139 156.226 41.6966 156.226C41.5939 156.226 41.4986 156.189 41.4106 156.116C41.3299 156.035 41.2896 155.944 41.2896 155.841C41.2896 155.753 41.3262 155.669 41.3996 155.588C41.6196 155.353 41.7626 155.089 41.8286 154.796C41.6159 154.774 41.4399 154.693 41.3006 154.554C41.1686 154.407 41.1026 154.228 41.1026 154.015C41.1026 153.78 41.1759 153.586 41.3226 153.432C41.4766 153.271 41.6672 153.19 41.8946 153.19ZM46.6253 160.043C46.9919 160.065 47.1753 160.23 47.1753 160.538C47.1753 160.714 47.1019 160.85 46.9553 160.945C46.8159 161.033 46.6143 161.07 46.3503 161.055L46.0533 161.033C44.8213 160.945 44.2053 160.285 44.2053 159.053V156.655H43.6553C43.4573 156.655 43.3033 156.611 43.1933 156.523C43.0906 156.435 43.0393 156.307 43.0393 156.138C43.0393 155.969 43.0906 155.841 43.1933 155.753C43.3033 155.665 43.4573 155.621 43.6553 155.621H44.2053V154.609C44.2053 154.411 44.2676 154.253 44.3923 154.136C44.5169 154.019 44.6856 153.96 44.8983 153.96C45.1036 153.96 45.2686 154.019 45.3933 154.136C45.5179 154.253 45.5803 154.411 45.5803 154.609V155.621H46.5153C46.7133 155.621 46.8636 155.665 46.9663 155.753C47.0763 155.841 47.1313 155.969 47.1313 156.138C47.1313 156.307 47.0763 156.435 46.9663 156.523C46.8636 156.611 46.7133 156.655 46.5153 156.655H45.5803V159.152C45.5803 159.695 45.8296 159.984 46.3283 160.021L46.6253 160.043ZM53.1151 154.268C52.7778 154.29 52.5321 154.393 52.3781 154.576C52.2241 154.759 52.1471 155.023 52.1471 155.368V155.621H53.0821C53.4928 155.621 53.6981 155.793 53.6981 156.138C53.6981 156.483 53.4928 156.655 53.0821 156.655H52.1471V160.406C52.1471 160.619 52.0811 160.78 51.9491 160.89C51.8245 161 51.6631 161.055 51.4651 161.055C51.2671 161.055 51.1021 161 50.9701 160.89C50.8381 160.78 50.7721 160.619 50.7721 160.406V156.655H50.2221C49.8115 156.655 49.6061 156.483 49.6061 156.138C49.6061 155.793 49.8115 155.621 50.2221 155.621H50.7721V155.544C50.7721 154.855 50.9518 154.316 51.3111 153.927C51.6778 153.531 52.1911 153.307 52.8511 153.256L53.1371 153.234C53.4305 153.212 53.6358 153.245 53.7531 153.333C53.8778 153.414 53.9401 153.542 53.9401 153.718C53.9401 154.033 53.7605 154.209 53.4011 154.246L53.1151 154.268ZM55.6204 161.066C55.4224 161.066 55.2574 161.011 55.1254 160.901C55.0008 160.784 54.9384 160.619 54.9384 160.406V156.16C54.9384 155.947 55.0008 155.786 55.1254 155.676C55.2574 155.566 55.4224 155.511 55.6204 155.511C55.8184 155.511 55.9834 155.566 56.1154 155.676C56.2474 155.786 56.3134 155.947 56.3134 156.16V160.406C56.3134 160.619 56.2474 160.784 56.1154 160.901C55.9834 161.011 55.8184 161.066 55.6204 161.066ZM55.6204 154.532C55.3711 154.532 55.1731 154.466 55.0264 154.334C54.8798 154.195 54.8064 154.015 54.8064 153.795C54.8064 153.575 54.8798 153.399 55.0264 153.267C55.1731 153.135 55.3711 153.069 55.6204 153.069C55.8624 153.069 56.0568 153.135 56.2034 153.267C56.3574 153.399 56.4344 153.575 56.4344 153.795C56.4344 154.015 56.3611 154.195 56.2144 154.334C56.0678 154.466 55.8698 154.532 55.6204 154.532ZM60.6154 155.489C61.2607 155.489 61.7411 155.672 62.0564 156.039C62.3717 156.406 62.5294 156.959 62.5294 157.7V160.406C62.5294 160.611 62.4671 160.773 62.3424 160.89C62.2251 161.007 62.0601 161.066 61.8474 161.066C61.6347 161.066 61.4661 161.007 61.3414 160.89C61.2167 160.773 61.1544 160.611 61.1544 160.406V157.777C61.1544 157.359 61.0737 157.055 60.9124 156.864C60.7584 156.673 60.5127 156.578 60.1754 156.578C59.7794 156.578 59.4604 156.703 59.2184 156.952C58.9837 157.201 58.8664 157.535 58.8664 157.953V160.406C58.8664 160.611 58.8041 160.773 58.6794 160.89C58.5547 161.007 58.3861 161.066 58.1734 161.066C57.9607 161.066 57.7921 161.007 57.6674 160.89C57.5501 160.773 57.4914 160.611 57.4914 160.406V156.149C57.4914 155.958 57.5537 155.804 57.6784 155.687C57.8031 155.57 57.9717 155.511 58.1844 155.511C58.3751 155.511 58.5291 155.57 58.6464 155.687C58.7711 155.797 58.8334 155.944 58.8334 156.127V156.424C59.0167 156.123 59.2624 155.892 59.5704 155.731C59.8784 155.57 60.2267 155.489 60.6154 155.489ZM68.174 153.19C68.3793 153.19 68.548 153.249 68.68 153.366C68.812 153.483 68.878 153.637 68.878 153.828V160.406C68.878 160.604 68.8156 160.762 68.691 160.879C68.5663 160.996 68.4013 161.055 68.196 161.055C67.9906 161.055 67.8256 160.996 67.701 160.879C67.5763 160.762 67.514 160.604 67.514 160.406V160.131C67.3526 160.432 67.118 160.666 66.81 160.835C66.5093 161.004 66.1646 161.088 65.776 161.088C65.314 161.088 64.8996 160.971 64.533 160.736C64.1736 160.501 63.8913 160.171 63.686 159.746C63.488 159.313 63.389 158.818 63.389 158.261C63.389 157.704 63.488 157.216 63.686 156.798C63.8913 156.38 64.1736 156.057 64.533 155.83C64.8923 155.603 65.3066 155.489 65.776 155.489C66.1646 155.489 66.5093 155.57 66.81 155.731C67.1106 155.892 67.3416 156.12 67.503 156.413V153.806C67.503 153.623 67.5616 153.476 67.679 153.366C67.8036 153.249 67.9686 153.19 68.174 153.19ZM66.139 160.021C66.579 160.021 66.9163 159.871 67.151 159.57C67.393 159.269 67.514 158.84 67.514 158.283C67.514 157.726 67.393 157.3 67.151 157.007C66.9163 156.706 66.5826 156.556 66.15 156.556C65.71 156.556 65.369 156.703 65.127 156.996C64.885 157.289 64.764 157.711 64.764 158.261C64.764 158.818 64.885 159.251 65.127 159.559C65.369 159.867 65.7063 160.021 66.139 160.021ZM79.1897 155.489C79.7764 155.489 80.2237 155.665 80.5317 156.017C80.8471 156.362 81.0047 156.923 81.0047 157.7V160.406C81.0047 160.619 80.9387 160.784 80.8067 160.901C80.6821 161.011 80.5171 161.066 80.3117 161.066C80.1137 161.066 79.9487 161.011 79.8167 160.901C79.6921 160.784 79.6297 160.619 79.6297 160.406V157.7C79.6297 157.297 79.5564 157.011 79.4097 156.842C79.2704 156.666 79.0541 156.578 78.7607 156.578C78.4014 156.578 78.1154 156.703 77.9027 156.952C77.6901 157.194 77.5837 157.528 77.5837 157.953V160.406C77.5837 160.619 77.5177 160.784 77.3857 160.901C77.2611 161.011 77.0997 161.066 76.9017 161.066C76.7037 161.066 76.5387 161.011 76.4067 160.901C76.2747 160.784 76.2087 160.619 76.2087 160.406V157.7C76.2087 157.297 76.1354 157.011 75.9887 156.842C75.8494 156.666 75.6331 156.578 75.3397 156.578C74.9804 156.578 74.6944 156.703 74.4817 156.952C74.2764 157.194 74.1737 157.528 74.1737 157.953V160.406C74.1737 160.619 74.1077 160.784 73.9757 160.901C73.8437 161.011 73.6787 161.066 73.4807 161.066C73.2827 161.066 73.1177 161.011 72.9857 160.901C72.8611 160.784 72.7987 160.619 72.7987 160.406V156.149C72.7987 155.944 72.8647 155.786 72.9967 155.676C73.1287 155.566 73.2937 155.511 73.4917 155.511C73.6824 155.511 73.8364 155.566 73.9537 155.676C74.0784 155.779 74.1407 155.929 74.1407 156.127V156.391C74.3094 156.098 74.5331 155.874 74.8117 155.72C75.0977 155.566 75.4241 155.489 75.7907 155.489C76.5974 155.489 77.1364 155.826 77.4077 156.501C77.5691 156.193 77.8074 155.947 78.1227 155.764C78.4381 155.581 78.7937 155.489 79.1897 155.489ZM85.9133 155.907C85.9719 155.775 86.0489 155.68 86.1443 155.621C86.2469 155.555 86.3569 155.522 86.4743 155.522C86.6429 155.522 86.7933 155.581 86.9253 155.698C87.0646 155.808 87.1343 155.947 87.1343 156.116C87.1343 156.197 87.1123 156.281 87.0683 156.369L84.0653 162.661C83.9406 162.91 83.7463 163.035 83.4823 163.035C83.3136 163.035 83.1633 162.98 83.0313 162.87C82.9066 162.767 82.8443 162.635 82.8443 162.474C82.8443 162.393 82.8663 162.302 82.9103 162.199L83.6583 160.626L81.6123 156.369C81.5756 156.296 81.5573 156.211 81.5573 156.116C81.5573 155.947 81.6269 155.804 81.7663 155.687C81.9129 155.57 82.0779 155.511 82.2613 155.511C82.3859 155.511 82.4996 155.544 82.6023 155.61C82.7049 155.669 82.7856 155.764 82.8443 155.896L84.3843 159.295L85.9133 155.907ZM92.4056 161.088C91.6063 161.088 90.961 160.93 90.4696 160.615C90.235 160.476 90.1176 160.278 90.1176 160.021C90.1176 159.874 90.158 159.757 90.2386 159.669C90.3193 159.574 90.4183 159.526 90.5356 159.526C90.6603 159.526 90.8326 159.585 91.0526 159.702C91.2873 159.812 91.5 159.896 91.6906 159.955C91.8886 160.014 92.138 160.043 92.4386 160.043C92.7466 160.043 92.985 159.992 93.1536 159.889C93.3296 159.786 93.4176 159.643 93.4176 159.46C93.4176 159.335 93.381 159.236 93.3076 159.163C93.2416 159.09 93.117 159.024 92.9336 158.965C92.7576 158.899 92.4863 158.826 92.1196 158.745C91.467 158.613 90.9976 158.426 90.7116 158.184C90.433 157.942 90.2936 157.608 90.2936 157.183C90.2936 156.86 90.389 156.571 90.5796 156.314C90.7703 156.05 91.0306 155.848 91.3606 155.709C91.698 155.562 92.0793 155.489 92.5046 155.489C92.8126 155.489 93.1096 155.529 93.3956 155.61C93.6816 155.683 93.9383 155.793 94.1656 155.94C94.4003 156.087 94.5176 156.281 94.5176 156.523C94.5176 156.67 94.4773 156.794 94.3966 156.897C94.316 156.992 94.217 157.04 94.0996 157.04C94.019 157.04 93.9383 157.025 93.8576 156.996C93.7843 156.959 93.689 156.908 93.5716 156.842C93.359 156.732 93.1756 156.651 93.0216 156.6C92.8676 156.541 92.677 156.512 92.4496 156.512C92.1783 156.512 91.962 156.567 91.8006 156.677C91.6466 156.787 91.5696 156.937 91.5696 157.128C91.5696 157.311 91.6503 157.451 91.8116 157.546C91.973 157.641 92.2846 157.737 92.7466 157.832C93.238 157.935 93.623 158.052 93.9016 158.184C94.1803 158.316 94.3783 158.481 94.4956 158.679C94.6203 158.877 94.6826 159.13 94.6826 159.438C94.6826 159.937 94.4736 160.336 94.0556 160.637C93.645 160.938 93.095 161.088 92.4056 161.088ZM99.8145 159.526C99.9392 159.526 100.038 159.574 100.111 159.669C100.192 159.764 100.232 159.893 100.232 160.054C100.232 160.281 100.097 160.472 99.8255 160.626C99.5762 160.765 99.2938 160.879 98.9785 160.967C98.6632 161.048 98.3625 161.088 98.0765 161.088C97.2112 161.088 96.5255 160.839 96.0195 160.34C95.5135 159.841 95.2605 159.159 95.2605 158.294C95.2605 157.744 95.3705 157.256 95.5905 156.831C95.8105 156.406 96.1185 156.076 96.5145 155.841C96.9178 155.606 97.3725 155.489 97.8785 155.489C98.3625 155.489 98.7842 155.595 99.1435 155.808C99.5028 156.021 99.7815 156.321 99.9795 156.71C100.177 157.099 100.276 157.557 100.276 158.085C100.276 158.4 100.137 158.558 99.8585 158.558H96.6135C96.6575 159.064 96.8005 159.438 97.0425 159.68C97.2845 159.915 97.6365 160.032 98.0985 160.032C98.3332 160.032 98.5385 160.003 98.7145 159.944C98.8978 159.885 99.1032 159.805 99.3305 159.702C99.5505 159.585 99.7118 159.526 99.8145 159.526ZM97.9115 156.457C97.5375 156.457 97.2368 156.574 97.0095 156.809C96.7895 157.044 96.6575 157.381 96.6135 157.821H99.0995C99.0848 157.374 98.9748 157.036 98.7695 156.809C98.5642 156.574 98.2782 156.457 97.9115 156.457ZM104.164 155.511C104.355 155.496 104.505 155.537 104.615 155.632C104.725 155.727 104.78 155.87 104.78 156.061C104.78 156.259 104.733 156.406 104.637 156.501C104.542 156.596 104.37 156.659 104.12 156.688L103.79 156.721C103.358 156.765 103.039 156.912 102.833 157.161C102.635 157.41 102.536 157.722 102.536 158.096V160.406C102.536 160.619 102.47 160.784 102.338 160.901C102.206 161.011 102.041 161.066 101.843 161.066C101.645 161.066 101.48 161.011 101.348 160.901C101.224 160.784 101.161 160.619 101.161 160.406V156.149C101.161 155.944 101.224 155.786 101.348 155.676C101.48 155.566 101.642 155.511 101.832 155.511C102.023 155.511 102.177 155.566 102.294 155.676C102.412 155.779 102.47 155.929 102.47 156.127V156.567C102.61 156.244 102.815 155.995 103.086 155.819C103.365 155.643 103.673 155.544 104.01 155.522L104.164 155.511ZM109.216 155.907C109.275 155.775 109.352 155.676 109.447 155.61C109.55 155.544 109.66 155.511 109.777 155.511C109.946 155.511 110.096 155.57 110.228 155.687C110.368 155.797 110.437 155.936 110.437 156.105C110.437 156.193 110.415 156.281 110.371 156.369L108.336 160.626C108.27 160.765 108.175 160.872 108.05 160.945C107.933 161.018 107.801 161.055 107.654 161.055C107.515 161.055 107.379 161.018 107.247 160.945C107.123 160.872 107.027 160.765 106.961 160.626L104.915 156.369C104.879 156.296 104.86 156.211 104.86 156.116C104.86 155.947 104.93 155.804 105.069 155.687C105.216 155.57 105.381 155.511 105.564 155.511C105.828 155.511 106.023 155.639 106.147 155.896L107.687 159.295L109.216 155.907ZM115.186 159.526C115.311 159.526 115.41 159.574 115.483 159.669C115.564 159.764 115.604 159.893 115.604 160.054C115.604 160.281 115.469 160.472 115.197 160.626C114.948 160.765 114.666 160.879 114.35 160.967C114.035 161.048 113.734 161.088 113.448 161.088C112.583 161.088 111.897 160.839 111.391 160.34C110.885 159.841 110.632 159.159 110.632 158.294C110.632 157.744 110.742 157.256 110.962 156.831C111.182 156.406 111.49 156.076 111.886 155.841C112.29 155.606 112.744 155.489 113.25 155.489C113.734 155.489 114.156 155.595 114.515 155.808C114.875 156.021 115.153 156.321 115.351 156.71C115.549 157.099 115.648 157.557 115.648 158.085C115.648 158.4 115.509 158.558 115.23 158.558H111.985C112.029 159.064 112.172 159.438 112.414 159.68C112.656 159.915 113.008 160.032 113.47 160.032C113.705 160.032 113.91 160.003 114.086 159.944C114.27 159.885 114.475 159.805 114.702 159.702C114.922 159.585 115.084 159.526 115.186 159.526ZM113.283 156.457C112.909 156.457 112.609 156.574 112.381 156.809C112.161 157.044 112.029 157.381 111.985 157.821H114.471C114.457 157.374 114.347 157.036 114.141 156.809C113.936 156.574 113.65 156.457 113.283 156.457ZM119.536 155.511C119.727 155.496 119.877 155.537 119.987 155.632C120.097 155.727 120.152 155.87 120.152 156.061C120.152 156.259 120.104 156.406 120.009 156.501C119.914 156.596 119.741 156.659 119.492 156.688L119.162 156.721C118.729 156.765 118.41 156.912 118.205 157.161C118.007 157.41 117.908 157.722 117.908 158.096V160.406C117.908 160.619 117.842 160.784 117.71 160.901C117.578 161.011 117.413 161.066 117.215 161.066C117.017 161.066 116.852 161.011 116.72 160.901C116.595 160.784 116.533 160.619 116.533 160.406V156.149C116.533 155.944 116.595 155.786 116.72 155.676C116.852 155.566 117.013 155.511 117.204 155.511C117.395 155.511 117.549 155.566 117.666 155.676C117.783 155.779 117.842 155.929 117.842 156.127V156.567C117.981 156.244 118.187 155.995 118.458 155.819C118.737 155.643 119.045 155.544 119.382 155.522L119.536 155.511ZM123.899 157.15C123.665 157.15 123.47 157.073 123.316 156.919C123.162 156.758 123.085 156.56 123.085 156.325C123.085 156.09 123.162 155.896 123.316 155.742C123.47 155.588 123.665 155.511 123.899 155.511C124.134 155.511 124.328 155.588 124.482 155.742C124.636 155.896 124.713 156.09 124.713 156.325C124.713 156.56 124.636 156.758 124.482 156.919C124.328 157.073 124.134 157.15 123.899 157.15ZM123.899 161.066C123.665 161.066 123.47 160.989 123.316 160.835C123.162 160.674 123.085 160.476 123.085 160.241C123.085 160.006 123.162 159.812 123.316 159.658C123.47 159.497 123.665 159.416 123.899 159.416C124.134 159.416 124.328 159.497 124.482 159.658C124.636 159.812 124.713 160.006 124.713 160.241C124.713 160.476 124.636 160.674 124.482 160.835C124.328 160.989 124.134 161.066 123.899 161.066ZM127.323 162.606C126.531 161.22 126.135 159.72 126.135 158.107C126.135 156.472 126.531 154.968 127.323 153.597C127.411 153.458 127.51 153.355 127.62 153.289C127.737 153.216 127.854 153.179 127.972 153.179C128.096 153.179 128.199 153.219 128.28 153.3C128.368 153.373 128.412 153.476 128.412 153.608C128.412 153.711 128.393 153.802 128.357 153.883C127.814 155.218 127.543 156.626 127.543 158.107C127.543 158.848 127.609 159.563 127.741 160.252C127.873 160.934 128.078 161.62 128.357 162.309C128.393 162.39 128.412 162.481 128.412 162.584C128.412 162.716 128.368 162.819 128.28 162.892C128.199 162.973 128.096 163.013 127.972 163.013C127.854 163.013 127.737 162.98 127.62 162.914C127.502 162.848 127.403 162.745 127.323 162.606Z" fill="#2D3540"/>
</svg>
